<svg width="120" height="30" viewBox="0 0 120 30" fill="none" xmlns="http://www.w3.org/2000/svg">
<path fill-rule="evenodd" clip-rule="evenodd" d="M14.9504 30C23.2073 30 29.9008 23.2843 29.9008 15C29.9008 6.71574 23.2073 0 14.9504 0C6.69351 0 0 6.71574 0 15C0 23.2843 6.69351 30 14.9504 30ZM19.6144 6.98764C19.8414 6.17854 19.0589 5.7001 18.3441 6.21098L8.36708 13.3422C7.59197 13.8962 7.71389 15 8.55022 15H11.1775V14.9796H16.2978L12.1257 16.4566L10.2864 23.0124C10.0594 23.8215 10.8419 24.2999 11.5567 23.789L21.5337 16.6579C22.3088 16.1038 22.1868 15 21.3506 15H17.3665L19.6144 6.98764Z" fill="#0F172A"/>
<path d="M38.7536 24.78V11.82H41.2922V12.873C41.6331 12.471 42.0666 12.15 42.5929 11.91C43.1251 11.67 43.7411 11.55 44.4408 11.55C45.3139 11.55 46.0913 11.751 46.773 12.153C47.4607 12.555 48.0019 13.122 48.3966 13.854C48.7913 14.586 48.9887 15.438 48.9887 16.41C48.9887 17.094 48.875 17.733 48.6478 18.327C48.4265 18.915 48.1096 19.431 47.6969 19.875C47.2843 20.313 46.7969 20.655 46.2348 20.901C45.6786 21.147 45.0627 21.27 44.3869 21.27C43.8487 21.27 43.3524 21.183 42.8979 21.009C42.4494 20.835 42.0457 20.589 41.6869 20.271V24.78H38.7536ZM43.8936 18.732C44.3182 18.732 44.6979 18.639 45.0328 18.453C45.3677 18.261 45.6308 17.991 45.8222 17.643C46.0135 17.295 46.1092 16.884 46.1092 16.41C46.1092 15.93 46.0105 15.519 45.8132 15.177C45.6218 14.829 45.3587 14.562 45.0238 14.376C44.6949 14.184 44.3182 14.088 43.8936 14.088C43.475 14.088 43.0982 14.184 42.7633 14.376C42.4284 14.562 42.1653 14.829 41.9739 15.177C41.7826 15.519 41.6869 15.93 41.6869 16.41C41.6869 16.884 41.7826 17.295 41.9739 17.643C42.1653 17.991 42.4254 18.261 42.7543 18.453C43.0892 18.639 43.469 18.732 43.8936 18.732Z" fill="#0F172A"/>
<path d="M50.7023 21V11.82H53.6445V12.891C53.9196 12.417 54.2844 12.072 54.7389 11.856C55.1934 11.64 55.6867 11.532 56.219 11.532C56.4223 11.532 56.6047 11.544 56.7661 11.568C56.9276 11.592 57.0861 11.619 57.2416 11.649L56.8917 14.682C56.6884 14.61 56.4731 14.553 56.2459 14.511C56.0186 14.463 55.7914 14.439 55.5641 14.439C55.008 14.439 54.5475 14.601 54.1827 14.925C53.8239 15.243 53.6445 15.711 53.6445 16.329V21H50.7023Z" fill="#0F172A"/>
<path d="M62.8496 21.27C61.851 21.27 60.9689 21.051 60.2034 20.613C59.438 20.169 58.837 19.578 58.4004 18.84C57.9698 18.102 57.7546 17.292 57.7546 16.41C57.7546 15.768 57.8771 15.156 58.1223 14.574C58.3735 13.986 58.7263 13.467 59.1808 13.017C59.6353 12.561 60.1735 12.204 60.7955 11.946C61.4174 11.682 62.1021 11.55 62.8496 11.55C63.8483 11.55 64.7304 11.772 65.4959 12.216C66.2613 12.654 66.8593 13.242 67.2899 13.98C67.7205 14.718 67.9358 15.528 67.9358 16.41C67.9358 17.052 67.8132 17.667 67.568 18.255C67.3228 18.837 66.973 19.353 66.5185 19.803C66.064 20.253 65.5258 20.61 64.9038 20.874C64.2819 21.138 63.5972 21.27 62.8496 21.27ZM62.8496 18.732C63.2683 18.732 63.645 18.639 63.9799 18.453C64.3148 18.261 64.5779 17.991 64.7693 17.643C64.9606 17.295 65.0563 16.884 65.0563 16.41C65.0563 15.93 64.9606 15.519 64.7693 15.177C64.5839 14.829 64.3238 14.562 63.9889 14.376C63.654 14.184 63.2742 14.088 62.8496 14.088C62.425 14.088 62.0453 14.184 61.7104 14.376C61.3755 14.562 61.1124 14.829 60.921 15.177C60.7297 15.519 60.634 15.93 60.634 16.41C60.634 16.884 60.7297 17.295 60.921 17.643C61.1184 17.991 61.3845 18.261 61.7194 18.453C62.0543 18.639 62.431 18.732 62.8496 18.732Z" fill="#0F172A"/>
<path d="M69.318 25.05C68.8456 25.05 68.4479 25.011 68.125 24.933C67.7961 24.861 67.4672 24.738 67.1383 24.564L67.7213 22.377C67.8768 22.455 68.0293 22.515 68.1788 22.557C68.3283 22.599 68.4958 22.62 68.6811 22.62C69.022 22.62 69.2702 22.524 69.4257 22.332C69.5812 22.146 69.6589 21.864 69.6589 21.486V11.82H72.6011V21.675C72.6011 22.347 72.4636 22.935 72.1885 23.439C71.9194 23.949 71.5367 24.345 71.0403 24.627C70.5499 24.909 69.9758 25.05 69.318 25.05ZM71.13 10.461C70.6576 10.461 70.2449 10.314 69.8921 10.02C69.5453 9.72001 69.3718 9.32101 69.3718 8.82301C69.3718 8.31301 69.5453 7.91101 69.8921 7.617C70.2449 7.32301 70.6576 7.17601 71.13 7.17601C71.6084 7.17601 72.021 7.32301 72.3679 7.617C72.7148 7.91101 72.8882 8.31301 72.8882 8.82301C72.8882 9.32101 72.7148 9.72001 72.3679 10.02C72.021 10.314 71.6084 10.461 71.13 10.461Z" fill="#0F172A"/>
<path d="M79.3877 21.27C78.383 21.27 77.5009 21.069 76.7415 20.667C75.982 20.259 75.3899 19.692 74.9653 18.966C74.5408 18.234 74.3285 17.379 74.3285 16.401C74.3285 15.693 74.4511 15.042 74.6962 14.448C74.9474 13.854 75.2943 13.341 75.7368 12.909C76.1853 12.477 76.7116 12.144 77.3156 11.91C77.9255 11.67 78.5953 11.55 79.3249 11.55C80.1262 11.55 80.8409 11.694 81.4688 11.982C82.0967 12.264 82.614 12.66 83.0206 13.17C83.4333 13.674 83.7173 14.271 83.8728 14.961C84.0283 15.645 84.0343 16.389 83.8907 17.193H77.0195C77.0255 17.553 77.1332 17.868 77.3425 18.138C77.5518 18.408 77.8388 18.621 78.2036 18.777C78.5684 18.927 78.993 19.002 79.4774 19.002C80.0156 19.002 80.5269 18.933 81.0113 18.795C81.4957 18.651 81.9591 18.432 82.4017 18.138L83.3256 20.136C83.0445 20.352 82.6798 20.547 82.2312 20.721C81.7887 20.889 81.3163 21.021 80.8139 21.117C80.3176 21.219 79.8422 21.27 79.3877 21.27ZM77.1989 15.204H81.092C81.0801 14.742 80.9096 14.373 80.5807 14.097C80.2518 13.821 79.8063 13.683 79.2442 13.683C78.676 13.683 78.2036 13.821 77.8269 14.097C77.4561 14.373 77.2468 14.742 77.1989 15.204Z" fill="#0F172A"/>
<path d="M90.1364 21.27C89.1676 21.27 88.3005 21.06 87.535 20.64C86.7756 20.214 86.1745 19.635 85.732 18.903C85.2895 18.165 85.0682 17.334 85.0682 16.41C85.0682 15.714 85.1968 15.072 85.4539 14.484C85.7171 13.896 86.0848 13.383 86.5573 12.945C87.0297 12.501 87.5799 12.159 88.2078 11.919C88.8357 11.673 89.5175 11.55 90.253 11.55C90.9467 11.55 91.5896 11.646 92.1816 11.838C92.7737 12.024 93.3059 12.306 93.7783 12.684L92.4866 14.871C92.1936 14.601 91.8707 14.403 91.5178 14.277C91.171 14.151 90.8062 14.088 90.4234 14.088C89.9211 14.088 89.4876 14.178 89.1228 14.358C88.758 14.538 88.4769 14.802 88.2796 15.15C88.0882 15.498 87.9925 15.915 87.9925 16.401C87.9925 17.133 88.2078 17.706 88.6384 18.12C89.0749 18.528 89.6729 18.732 90.4324 18.732C90.863 18.732 91.2667 18.654 91.6434 18.498C92.0261 18.336 92.376 18.102 92.6929 17.796L93.886 20.028C93.3717 20.412 92.7826 20.715 92.1188 20.937C91.461 21.159 90.8002 21.27 90.1364 21.27Z" fill="#0F172A"/>
<path d="M99.4409 21.27C98.4243 21.27 97.6259 20.985 97.0459 20.415C96.4658 19.839 96.1758 18.981 96.1758 17.841V9.19201H99.118V11.82H101.262V14.16H99.118V17.328C99.118 17.82 99.2256 18.165 99.4409 18.363C99.6562 18.561 99.9343 18.66 100.275 18.66C100.461 18.66 100.643 18.639 100.822 18.597C101.008 18.549 101.178 18.48 101.334 18.39L101.71 20.703C101.429 20.859 101.091 20.991 100.697 21.099C100.302 21.213 99.8835 21.27 99.4409 21.27ZM94.3997 14.16V11.82H96.4449V14.16H94.3997Z" fill="#0F172A"/>
<path d="M103.167 17.202V14.619H108.442V17.202H103.167Z" fill="#94A3B8"/>
<path d="M109.37 21.027L112.662 16.473L109.541 11.82H113.254L114.717 14.448L116.143 11.82H119.776L116.744 16.419L120 21H116.233L114.618 18.408L112.985 20.973L109.37 21.027Z" fill="#94A3B8"/>
</svg>
